<?xml version="1.0" encoding="utf-8"?>
<!-- Generator: Adobe Illustrator 28.0.0, SVG Export Plug-In . SVG Version: 6.00 Build 0)  -->
<svg version="1.1" id="Layer_1" xmlns="http://www.w3.org/2000/svg" xmlns:xlink="http://www.w3.org/1999/xlink" x="0px" y="0px"
	 viewBox="0 0 368.6400757 368.6405945" style="enable-background:new 0 0 368.6400757 368.6405945;" xml:space="preserve">
<style type="text/css">
	.st0{fill:none;}
	.st1{fill:#CAAF56;}
</style>
<g>
	<path class="st0" d="M184.3197784,125.6449814c-19.0731812,0-38.1642456-1.1928711-56.406868-3.5667725
		c-2.3358765,17.6320724-3.7072754,36.63134-3.9303589,56.4817429h114.0607986
		c-0.2197266-19.5533447-1.5525513-38.2824707-3.8249512-55.6909714
		C217.966507,124.7145004,201.1370392,125.6449814,184.3197784,125.6449814z"/>
	<path class="st0" d="M129.5804596,257.924408c3.0739136,19.0199585,7.3006592,36.189209,12.4298706,50.7669678
		c10.1671143,28.8953857,23.4158936,47.1409302,37.4992676,48.3589478c0.7670288,0.0209961,1.5376587,0.0271606,2.307251,0.0380859
		c14.3432617-0.6636963,27.8639526-19.0236816,38.1992188-48.3980103
		c5.1989136-14.7763672,9.4726562-32.211731,12.5564575-51.541748c-15.6796875-1.7505035-31.9551392-2.6330719-48.2527466-2.6330719
		C165.7626495,254.5155792,147.2313995,255.6549225,129.5804596,257.924408z"/>
	<path class="st0" d="M123.9824905,190.0799713c0.2230835,19.850708,1.5945435,38.8504028,3.930481,56.4827881
		c18.2425613-2.3738403,37.3336258-3.5667114,56.4068069-3.5667114c16.8171997,0,33.6466675,0.930481,49.8984985,2.776001
		c2.2724609-17.4087524,3.6054077-36.1382446,3.8251343-55.6920776H123.9824905z"/>
	<path class="st0" d="M232.572525,111.4919662c-3.0838013-19.3302612-7.3575439-36.7658691-12.5564575-51.5423012
		c-10.3352661-29.3734131-23.855957-47.734314-38.1992188-48.3980103c-0.7695923,0.0109253-1.5402222,0.0170898-2.307251,0.0380859
		c-14.083374,1.2181396-27.3321533,19.4644775-37.4992676,48.359436
		c-5.1292114,14.5779457-9.355957,31.7471962-12.4298706,50.7670937
		c17.6509399,2.2694702,36.1821899,3.4086914,54.7393188,3.4086914
		C200.6174469,114.1249619,216.8928375,113.2424545,232.572525,111.4919662z"/>
	<path class="st0" d="M209.3943024,15.6847734c8.2158813,9.6791372,15.4863892,23.4887085,21.4664917,40.4846191
		c5.4473877,15.482975,9.9163818,33.7150917,13.1226196,53.8811073
		c17.9417572-2.5473022,34.8671722-6.2883301,49.8449554-11.2269897
		c-5.883667-13.7122192-13.1343384-26.2572632-21.5183105-37.2991371
		C255.2823029,39.0973701,233.5996246,22.8895454,209.3943024,15.6847734z"/>
	<path class="st0" d="M39.7551994,190.0799713H11.625865c1.0096436,30.8135986,10.0794058,59.5861206,25.1793823,84.2741241
		c5.2501831-3.2153931,11.0308228-6.1860352,17.2703857-8.9068604
		C45.4748039,242.5832672,40.3908806,217.0556183,39.7551994,190.0799713z"/>
	<path class="st0" d="M322.2706909,190.0799713c-0.6137085,26.0460815-5.3710327,50.7451172-13.4404907,72.997757
		c8.4497681,3.3428345,16.1826172,7.098877,23.0041504,11.2767334
		c15.1000977-24.6881256,24.1697998-53.4607697,25.1793823-84.2744904H322.2706909z"/>
	<path class="st0" d="M298.0422974,109.4857407c-15.8082886,5.2593384-33.6084595,9.2315063-52.4163055,11.9227295
		c2.3443604,17.9057541,3.7166748,37.1273727,3.9385376,57.1514816h61.182724
		C310.1396484,153.8661041,305.6463013,130.4969025,298.0422974,109.4857407z"/>
	<path class="st0" d="M112.4618607,178.5599518c0.2258911-20.3899536,1.6464233-39.9454346,4.0696411-58.1293259
		c-18.7486572-3.0180054-36.3428955-7.3522339-51.7891846-12.9902954
		c-8.060421,21.5365524-12.8356895,45.6201706-13.463131,71.1196213H112.4618607z"/>
	<path class="st0" d="M39.7551994,178.5599518c0.6357422-26.9751587,5.7197266-52.5026779,14.3203735-75.3665695
		c-6.239502-2.7208862-12.0202637-5.6915894-17.2704468-8.9070435
		c-15.0998554,24.6877441-24.1694946,53.4603806-25.1792603,84.273613H39.7551994z"/>
	<path class="st0" d="M69.0673904,96.8285141c14.5913696,5.2998657,31.2834473,9.3841553,49.133606,12.2471313
		c3.194519-19.7781372,7.6052856-37.6743774,12.9649734-52.9067421
		c5.9797363-16.9956665,13.2502441-30.8050537,21.4661865-40.4841919
		c-24.2056274,7.204711-45.8885574,23.4125366-62.9163895,45.8396606
		C81.7404251,72.0284653,74.7911453,83.8934555,69.0673904,96.8285141z"/>
	<path class="st0" d="M58.4014397,92.5702744c6.1252403-13.9044189,13.5941734-26.668396,22.1796837-37.976078
		c5.7800903-7.612915,12.0682983-14.5628662,18.7863159-20.7729492
		C85.6890335,41.558918,73.1646805,51.0984077,62.1312981,62.131794
		c-6.9557495,6.9557533-13.3171387,14.5049477-19.0108032,22.5597572
		C47.7772331,87.5218124,52.8910637,90.1483383,58.4014397,92.5702744z"/>
	<path class="st0" d="M281.4447632,54.5941963c9.0640259,11.9375648,16.8791504,25.5017738,23.1862793,40.3142128
		c7.6739502-3.0442505,14.6885986-6.4490967,20.8881836-10.21698c-5.6937256-8.0548096-12.0551147-15.6039429-19.0109253-22.5596352
		c-15.2207642-15.22052-33.2738647-27.6038818-53.2926483-36.3173828
		C263.5472412,33.8341866,273.0325317,43.5143623,281.4447632,54.5941963z"/>
	<path class="st0" d="M308.8303223,105.5629501c8.0692749,22.2525024,12.8265991,46.9512253,13.4403687,72.9970016h34.743042
		c-1.0097046-30.8133545-10.0792847-59.586174-25.1792603-84.2739792
		C325.0129395,98.4638901,317.2800293,102.2199936,308.8303223,105.5629501z"/>
	<path class="st0" d="M304.6308594,273.7322693c-6.3070679,14.8121948-14.1221313,28.3761597-23.1860962,40.3135986
		c-8.4121704,11.0801392-17.8974609,20.760437-28.2289886,28.7802124
		c20.0187225-8.7133179,38.0717621-21.0965576,53.2925262-36.3173218
		c6.9557495-6.9558105,13.3171387-14.5049438,19.0108032-22.5596924
		C319.319519,280.1811829,312.3049316,276.7765198,304.6308594,273.7322693z"/>
	<path class="st0" d="M80.5811234,314.0458679c-8.5854492-11.3076172-16.0543823-24.0713501-22.1795616-37.9755249
		c-5.510376,2.421875-10.6242065,5.0484619-15.2809448,7.8786011c5.6936646,8.0548096,12.0549927,15.6040039,19.0106812,22.5598145
		c11.0335655,11.0336914,23.5580406,20.5733643,37.2366295,28.3109741
		C92.6497269,328.6094666,86.3613358,321.6591492,80.5811234,314.0458679z"/>
	<path class="st0" d="M152.6318512,352.9552917c-8.2158203-9.6791992-15.4862671-23.4884644-21.4658813-40.4837036
		c-5.3596268-15.2322388-9.7703934-33.128418-12.9649124-52.9065552
		c-17.8500366,2.8630371-34.5421753,6.9472656-49.1335449,12.2470703
		c5.7236938,12.9348755,12.6729736,24.7998657,20.6482544,35.3040771
		C106.7435379,329.5429382,128.4262848,345.7505798,152.6318512,352.9552917z"/>
	<path class="st0" d="M112.4618607,190.0799713H51.2791252c0.6273804,25.4998169,5.402771,49.5836182,13.4633141,71.1203766
		c15.4462891-5.6379547,33.0405273-9.9721222,51.7891235-12.9900055
		C114.108284,230.0260162,112.6877518,210.4702301,112.4618607,190.0799713z"/>
	<path class="st0" d="M249.5645294,190.0799713c-0.2218628,20.0244141-1.5942383,39.2463379-3.9386597,57.1524658
		c18.8078461,2.6911621,36.608017,6.6633301,52.4163055,11.9225616
		c7.604126-21.0113678,12.0975952-44.3808136,12.7050781-69.0750275H249.5645294z"/>
	<path class="st0" d="M272.3100586,307.1161804c8.3839111-11.0419312,15.6345215-23.5869141,21.5181885-37.2990112
		c-14.9777832-4.9385986-31.9031982-8.6796265-49.8448944-11.2269897
		c-3.2062378,20.1658325-7.6752319,38.3978271-13.1225586,53.8804932
		c-5.9800415,16.9957275-13.2504272,30.8052368-21.4661865,40.4844971
		C233.5998077,345.7504578,255.2823639,329.5428162,272.3100586,307.1161804z"/>
	<path class="st1" d="M314.6538086,53.9867744C281.2982788,20.6307564,235.218277-0.0000411,184.3197784-0.0000411
		c-0.626709,0-1.2492676,0.0175171-1.8745117,0.0237427c-0.4776611-0.0061646-0.9532471-0.0237427-1.4320679-0.0237427
		c-3.6975098,0-7.361084,0.1850586-10.9860229,0.5473633C124.8272171,4.0139971,84.189888,23.7827339,53.9862785,53.9867744
		C20.6308689,87.342308,0.0000104,133.4222565,0.0000104,184.3202667c0,50.8973999,20.6308594,96.9774933,53.9862671,130.3339996
		c30.2036095,30.2034912,70.8409424,49.97229,116.0408325,53.4389648c3.624939,0.3623047,7.2885742,0.5473633,10.986084,0.5473633
		c0.4788208,0,0.9544067-0.0175781,1.4320679-0.0237427c0.6252441,0.0062256,1.2478027,0.0237427,1.8745117,0.0237427
		c50.8984985,0,96.9785004-20.6309204,130.3340302-53.9863281c33.3554688-33.3565063,53.9862671-79.4365997,53.9862671-130.3339996
		C368.6400757,133.4222565,348.0092773,87.342308,314.6538086,53.9867744z M331.8343506,274.3544617
		c-6.8215332-4.1778564-14.5543823-7.9338989-23.0041504-11.2767334
		c8.069458-22.2526398,12.8267822-46.9516754,13.4404907-72.997757h34.743042
		C356.0041504,220.893692,346.9344482,249.6663361,331.8343506,274.3544617z M11.625865,190.0799713h28.1293335
		c0.6356812,26.975647,5.7196045,52.5032959,14.3204346,75.3672638c-6.239563,2.7208252-12.0202026,5.6914673-17.2703857,8.9068604
		C21.7052708,249.6660919,12.6355085,220.8935699,11.625865,190.0799713z M36.8051262,94.2863388
		c5.2501831,3.2154541,11.0309448,6.1861572,17.2704468,8.9070435
		c-8.600647,22.8638916-13.6846313,48.3914108-14.3203735,75.3665695H11.625865
		C12.6356306,147.7467194,21.7052708,118.9740829,36.8051262,94.2863388z M249.5645294,178.5599518
		c-0.2218628-20.0241089-1.5941772-39.2457275-3.9385376-57.1514816
		c18.8078461-2.6912231,36.608017-6.6633911,52.4163055-11.9227295
		c7.6040039,21.0111618,12.0973511,44.3803635,12.7049561,69.0742111H249.5645294z M184.3197784,242.996048
		c-19.0731812,0-38.1642456,1.1928711-56.4068069,3.5667114c-2.3359375-17.6323853-3.7073975-36.6320801-3.930481-56.4827881
		h114.0609207c-0.2197266,19.553833-1.5526733,38.2833252-3.8251343,55.6920776
		C217.9664459,243.9265289,201.1369781,242.996048,184.3197784,242.996048z M232.572525,257.1486511
		c-3.0838013,19.3300171-7.3575439,36.7653809-12.5564575,51.541748
		c-10.3352661,29.3743286-23.855957,47.734314-38.1992188,48.3980103c-0.7695923-0.0109253-1.5402222-0.0170898-2.307251-0.0380859
		c-14.083374-1.2180176-27.3321533-19.463562-37.4992676-48.3589478
		c-5.1292114-14.5777588-9.355957-31.7470093-12.4298706-50.7669678
		c17.6509399-2.2694855,36.1821899-3.4088287,54.7393188-3.4088287
		C200.6173859,254.5155792,216.8928375,255.3981476,232.572525,257.1486511z M123.9825516,178.5599518
		c0.2230835-19.8504028,1.5944824-38.8496704,3.9303589-56.4817429c18.2426224,2.3739014,37.3336868,3.5667725,56.406868,3.5667725
		c16.8172607,0,33.6467285-0.930481,49.8986206-2.776001c2.2723999,17.4085007,3.6052246,36.1376266,3.8249512,55.6909714
		H123.9825516z M129.5804596,110.7162704c3.0739136-19.0198975,7.3006592-36.1891479,12.4298706-50.7670937
		c10.1671143-28.8949585,23.4158936-47.1412964,37.4992676-48.359436c0.7670288-0.0209961,1.5376587-0.0271606,2.307251-0.0380859
		c14.3432617,0.6636963,27.8639526,19.0245972,38.1992188,48.3980103
		c5.1989136,14.776432,9.4726562,32.2120399,12.5564575,51.5423012
		c-15.6796875,1.7504883-31.9550781,2.6329956-48.2527466,2.6329956
		C165.7626495,114.1249619,147.2313995,112.9857407,129.5804596,110.7162704z M243.9834137,110.050499
		c-3.2062378-20.1660156-7.6752319-38.3981323-13.1226196-53.8811073
		c-5.9801025-16.9959106-13.2506104-30.805481-21.4664917-40.4846191
		c24.2053223,7.204772,45.8880005,23.4125977,62.9157562,45.8395996
		c8.3839722,11.0418739,15.6346436,23.5869179,21.5183105,37.2991371
		C278.8505859,103.7621689,261.9251709,107.5031967,243.9834137,110.050499z M152.6321564,15.6847124
		c-8.2159424,9.6791372-15.4864502,23.4885254-21.4661865,40.4841919
		c-5.3596878,15.2323647-9.7704544,33.1286049-12.9649734,52.9067421
		c-17.8501587-2.8629761-34.5422363-6.9472656-49.133606-12.2471313
		c5.7237549-12.9350586,12.6730347-24.8000488,20.6483765-35.304142
		C106.7435989,39.0972481,128.4265289,22.8894234,152.6321564,15.6847124z M116.5315018,120.4306259
		c-2.4232178,18.1838913-3.84375,37.7393723-4.0696411,58.1293259H51.2791862
		c0.6274414-25.4994507,5.40271-49.5830688,13.463131-71.1196213
		C80.1886063,113.078392,97.7828445,117.4126205,116.5315018,120.4306259z M51.2791252,190.0799713h61.1827354
		c0.2258911,20.3902588,1.6464233,39.9460449,4.0697021,58.1303711
		c-18.7485962,3.0178833-36.3428345,7.3520508-51.7891235,12.9900055
		C56.6818962,239.6635895,51.9065056,215.5797882,51.2791252,190.0799713z M118.2010574,259.565033
		c3.194519,19.7781372,7.6052856,37.6743164,12.9649124,52.9065552
		c5.9796143,16.9952393,13.250061,30.8045044,21.4658813,40.4837036
		c-24.2055664-7.2047119-45.8883133-23.4123535-62.9160843-45.8391113
		c-7.9752808-10.5042114-14.9245605-22.3692017-20.6482544-35.3040771
		C83.6588821,266.5122986,100.3510208,262.4280701,118.2010574,259.565033z M230.8607941,312.4706726
		c5.4473267-15.482666,9.9163208-33.7146606,13.1225586-53.8804932
		c17.9416962,2.5473633,34.8671112,6.2883911,49.8448944,11.2269897
		c-5.883667,13.7120972-13.1342773,26.2570801-21.5181885,37.2990112
		c-17.0276947,22.4266357-38.7102509,38.6342773-62.915451,45.8389893
		C217.6103668,343.2759094,224.8807526,329.4664001,230.8607941,312.4706726z M245.6258698,247.2324371
		c2.3444214-17.9061279,3.7167969-37.1280518,3.9386597-57.1524658h61.182724
		c-0.6074829,24.6942139-5.1009521,48.0636597-12.7050781,69.0750275
		C282.2338867,253.8957672,264.4337158,249.9235992,245.6258698,247.2324371z M322.2706909,178.5599518
		c-0.6137695-26.0457764-5.3710938-50.7444992-13.4403687-72.9970016
		c8.449707-3.3429565,16.1826172-7.0990601,23.0041504-11.2769775
		c15.0999756,24.6878052,24.1695557,53.4606247,25.1792603,84.2739792H322.2706909z M306.5083008,62.131794
		c6.9558105,6.9556923,13.3171997,14.5048256,19.0109253,22.5596352c-6.199585,3.7678833-13.2142334,7.1727295-20.8881836,10.21698
		c-6.3071289-14.812439-14.1222534-28.3766479-23.1862793-40.3142128
		c-8.4122314-11.079834-17.897522-20.7600098-28.2291107-28.7797852
		C273.234436,34.5279121,291.2875366,46.911274,306.5083008,62.131794z M62.1312981,62.131794
		c11.0333824-11.0333862,23.5577354-20.572876,37.2361412-28.3105469
		c-6.7180176,6.210083-13.0062256,13.1600342-18.7863159,20.7729492
		c-8.5855103,11.307682-16.0544434,24.0716591-22.1796837,37.976078c-5.510376-2.421936-10.6242065-5.0484619-15.2809448-7.8787231
		C48.8141594,76.6367416,55.1755486,69.0875473,62.1312981,62.131794z M62.1312981,306.5087585
		c-6.9556885-6.9558105-13.3170166-14.5050049-19.0106812-22.5598145c4.6567383-2.8301392,9.7705688-5.4567261,15.2809448-7.8786011
		c6.1251793,13.9041748,13.5941124,26.6679077,22.1795616,37.9755249
		c5.7802124,7.6132812,12.0686035,14.5635986,18.7868042,20.7738647
		C85.6893387,327.0821228,73.1648636,317.54245,62.1312981,306.5087585z M306.5083008,306.5087585
		c-15.2207642,15.2207642-33.2738037,27.6040039-53.2925262,36.3173218
		c10.3315277-8.0197754,19.8168182-17.7000732,28.2289886-28.7802124
		c9.0639648-11.937439,16.8790283-25.5014038,23.1860962-40.3135986
		c7.6740723,3.0442505,14.6886597,6.4489136,20.8882446,10.2167969
		C319.8254395,292.0038147,313.4640503,299.552948,306.5083008,306.5087585z"/>
</g>
</svg>
