<?xml version="1.0" encoding="utf-8"?>
<!-- Generator: Adobe Illustrator 28.0.0, SVG Export Plug-In . SVG Version: 6.00 Build 0)  -->
<svg version="1.1" id="Layer_1" xmlns="http://www.w3.org/2000/svg" xmlns:xlink="http://www.w3.org/1999/xlink" x="0px" y="0px"
	 viewBox="0 0 187.6268921 368.640625" style="enable-background:new 0 0 187.6268921 368.640625;" xml:space="preserve">
<style type="text/css">
	.st0{fill:none;}
	.st1{opacity:0.2;fill:#CAAF56;}
</style>
<g>
	<path class="st0" d="M91.296875,61.5244141c-17.027771-22.427002-38.7104492-38.6348267-62.9157715-45.8395996
		c8.2158813,9.6791382,15.4863892,23.4887085,21.4664917,40.4846191
		c5.4473877,15.4829712,9.9163818,33.7150879,13.1226196,53.8811035
		c17.9417725-2.5473022,34.8671875-6.2883301,49.8449707-11.2269897
		C106.9315186,85.1113281,99.6808472,72.5662842,91.296875,61.5244141z"/>
	<path class="st0" d="M117.0291138,109.4857788c-15.8082886,5.2593384-33.6084595,9.2315063-52.4163208,11.9227295
		c2.3443604,17.9057617,3.7166748,37.1273804,3.9385376,57.1514893h61.1827393
		C129.1264648,153.8661499,124.6331177,130.4969482,117.0291138,109.4857788z"/>
	<path class="st0" d="M129.7340698,190.0800171H68.5513306c-0.2218628,20.0244141-1.5942383,39.2463379-3.9386597,57.1524658
		c18.8078613,2.6911621,36.6080322,6.6633301,52.4163208,11.9225464
		C124.6331177,238.1436768,129.1265869,214.774231,129.7340698,190.0800171z"/>
	<path class="st0" d="M150.8212891,94.2860107c-6.8215332,4.1779175-14.5544434,7.934021-23.0041504,11.2769775
		c8.0692749,22.2525024,12.8265991,46.9512329,13.4403687,72.9970093h34.743042
		C174.9908447,147.7466431,165.9212646,118.9738159,150.8212891,94.2860107z"/>
	<path class="st0" d="M100.4315796,54.5942383c9.0640259,11.937561,16.8791504,25.50177,23.1862793,40.314209
		c7.6739502-3.0442505,14.6885986-6.4490967,20.8881836-10.21698c-5.6937256-8.0548096-12.0551147-15.6039429-19.0109253-22.5596313
		c-15.2207642-15.22052-33.2738647-27.6038818-53.2926636-36.3173828
		C82.5340576,33.8342285,92.0193481,43.5144043,100.4315796,54.5942383z"/>
	<path class="st0" d="M91.296875,307.1162109c8.3839111-11.0419312,15.6345215-23.5869141,21.5181885-37.2990112
		c-14.9777832-4.9385986-31.9031982-8.6796265-49.8449097-11.2269897
		c-3.2062378,20.1658325-7.6752319,38.3978271-13.1225586,53.8804932
		c-5.9800415,16.9957275-13.2504272,30.8052368-21.4661865,40.4844971
		C52.5866089,345.7504883,74.269165,329.5428467,91.296875,307.1162109z"/>
	<path class="st0" d="M100.4315796,314.0458984c-8.4121704,11.0801392-17.8974609,20.760437-28.2290039,28.7802124
		c20.0187378-8.7133179,38.0717773-21.0965576,53.2925415-36.3173218
		c6.9557495-6.9558105,13.3171387-14.5049438,19.0108032-22.5596924
		c-6.199585-3.7678833-13.2141724-7.1725464-20.8882446-10.2167969
		C117.3106079,288.5444946,109.4955444,302.1084595,100.4315796,314.0458984z"/>
	<path class="st0" d="M127.8170166,263.0777588c8.4497681,3.3428345,16.1826172,7.098877,23.0041504,11.2767334
		c15.1000977-24.6881104,24.1697998-53.4607544,25.1793823-84.2744751h-34.743042
		C140.6437988,216.1260986,135.8864746,240.8251343,127.8170166,263.0777588z"/>
	<path class="st1" d="M0,184.3203125c0,50.8973999,20.6307983,96.977478,53.9862671,130.3339844
		c33.3555298,33.3554077,79.4355469,53.9863281,130.3340454,53.9863281c0.626709,0,1.2492676-0.0175171,1.8745117-0.0237427
		c0.4776611,0.0061646,0.9532471,0.0237427,1.4320679,0.0237427v-0.0418091v-11.4786987v-0.0418701
		c-0.2675171,0.0050659-0.5358276,0.0063477-0.8036499,0.0101929
		c-14.3432617-0.6636963-27.8639526-19.0236816-38.1992188-48.3980103
		c-5.1989136-14.7763672-9.4726562-32.211731-12.5564575-51.541748c15.6796875-1.7504883,31.9551392-2.6330566,48.2527466-2.6330566
		c1.102478,0,2.2044678,0.0107422,3.3065796,0.0187378v-11.519104c-1.1021729-0.0079346-2.2043457-0.019165-3.3065796-0.019165
		c-16.8171997,0-33.6466675,0.930481-49.8984985,2.776001c-2.2724609-17.4087524-3.6054077-36.1382446-3.8251343-55.6920776
		h57.0302124v-11.5200195h-57.0301514c0.2197266-19.5533447,1.5525513-38.2824707,3.8249512-55.690979
		c16.2518921,1.84552,33.0813599,2.776001,49.8986206,2.776001c1.1022339,0,2.2044067-0.0112305,3.3065796-0.019165v-11.5195923
		c-1.1021118,0.0079956-2.2041016,0.0187378-3.3065796,0.0187378c-16.2976685,0-32.5730591-0.8825073-48.2527466-2.6329956
		c3.0838013-19.3302612,7.3575439-36.7658691,12.5564575-51.5422974
		c10.3352661-29.3734131,23.855957-47.734314,38.1992188-48.3980103c0.2678223,0.0038452,0.5361328,0.005127,0.8036499,0.0101929
		v-0.0418701V0.0418091V0c-0.4788208,0-0.9544067,0.0175781-1.4320679,0.0237427C185.5695801,0.0175171,184.9470215,0,184.3203125,0
		C133.421814,0,87.3417969,20.6307983,53.9862671,53.9868164C20.6307983,87.3423462,0,133.4223022,0,184.3203125z
		 M11.6263428,178.5599976c1.0097046-30.8133545,10.0792847-59.5861816,25.1792603-84.2739868
		c6.8215332,4.1779175,14.5544434,7.934021,23.0041504,11.2769775
		c-8.0692749,22.2525024-12.8265991,46.9512329-13.4403687,72.9970093H11.6263428z M115.4244385,25.8144531
		c-10.331604,8.0197754-19.8168945,17.6999512-28.229126,28.7797852c-9.0640259,11.937561-16.8791504,25.50177-23.1862793,40.314209
		c-7.6739502-3.0442505-14.6885986-6.4490967-20.8881836-10.21698c5.6937256-8.0548096,12.0551147-15.6039429,19.0109253-22.5596313
		C77.3525391,46.9113159,95.4056396,34.5279541,115.4244385,25.8144531z M124.6566772,110.0505371
		c-17.9417725-2.5473022-34.8671875-6.2883301-49.8449707-11.2269897
		c5.883667-13.7122192,13.1343384-26.2572632,21.5183105-37.2991333
		c17.027771-22.427002,38.7104492-38.6348267,62.9157715-45.8395996
		c-8.2158813,9.6791382-15.4863892,23.4887085-21.4664917,40.4846191
		C132.3319092,71.6524048,127.862915,89.8845215,124.6566772,110.0505371z M119.0755615,178.5599976H57.8928223
		c0.607605-24.6938477,5.1009521-48.0630493,12.7049561-69.0742188
		c15.8082886,5.2593384,33.6084595,9.2315063,52.4163208,11.9227295
		C120.6697388,139.31427,119.2974243,158.5358887,119.0755615,178.5599976z M123.0142212,247.2324829
		c-18.8078613,2.6911621-36.6080322,6.6633301-52.4163208,11.9225464
		c-7.604126-21.0113525-12.0975952-44.3807983-12.7050781-69.0750122h61.1827393
		C119.2974243,210.1044312,120.6697998,229.326355,123.0142212,247.2324829z M159.2454834,352.9552002
		c-24.2052002-7.2047119-45.8877563-23.4123535-62.9154663-45.8389893
		c-8.3839111-11.0419312-15.6345215-23.5869141-21.5181885-37.2990112
		c14.9777832-4.9385986,31.9031982-8.6796265,49.8449097-11.2269897
		c3.2062378,20.1658325,7.6752319,38.3978271,13.1225586,53.8804932
		C143.7593384,329.4664307,151.0297241,343.2759399,159.2454834,352.9552002z M43.1209717,283.9490967
		c6.199585-3.7678833,13.2141724-7.1725464,20.8882446-10.2167969
		c6.3070679,14.8121948,14.1221313,28.3761597,23.1860962,40.3135986
		c8.4121704,11.0801392,17.8974609,20.760437,28.2290039,28.7802124
		c-20.0187378-8.7133179-38.0717773-21.0965576-53.2925415-36.3173218
		C55.1760254,299.5529785,48.8146362,292.0038452,43.1209717,283.9490967z M11.6263428,190.0800171h34.743042
		c0.6137085,26.0460815,5.3710327,50.7451172,13.4404907,72.9977417
		c-8.4497681,3.3428345-16.1826172,7.098877-23.0041504,11.2767334
		C21.7056274,249.6663818,12.6359253,220.8937378,11.6263428,190.0800171z"/>
</g>
</svg>
