<?xml version="1.0" encoding="utf-8"?>
<!-- Generator: Adobe Illustrator 28.0.0, SVG Export Plug-In . SVG Version: 6.00 Build 0)  -->
<svg version="1.1" id="Layer_1" xmlns="http://www.w3.org/2000/svg" xmlns:xlink="http://www.w3.org/1999/xlink" x="0px" y="0px"
	 viewBox="0 0 634.7501221 667.3051147" style="enable-background:new 0 0 634.7501221 667.3051147;" xml:space="preserve">
<style type="text/css">
	.st0{opacity:0.1;}
	.st1{fill-rule:evenodd;clip-rule:evenodd;fill:#FFFFFF;}
	.st2{fill:#FFFFFF;}
</style>
<g class="st0">
	<path class="st1" d="M141.3670654,121.493454c-1.4506226,1.0739822-2.3914032,2.6947021-2.5913086,4.4955521
		c-0.1651306,1.4612274-3.9407654,36.2724686,4.4566193,79.5779037
		c4.6302185,23.9201355,23.6145935,61.2285614,40.8774872,90.0907745
		c6.6983032,11.2312927,9.9994049,11.6434631,12.0810547,32.5263062l4.1826782,41.9606934
		c0.5576935,9.1590881,1.7933655,12.1755066,8.0163574,22.2936401l34.7065887,52.5797119
		c2.0128479,3.0307312,6.1016846,3.8562012,9.1324463,1.8433838c2.1029663-1.3967896,3.1435699-3.7931519,2.9113312-6.1419983
		l-1.7324524-27.8534546c-0.9351807-4.2137146-0.3604126-8.6920166,1.6027527-13.4136963
		c3.7390137-8.9935608,11.4880371-9.5997925,19.3769226-7.0610046c10.0225525,3.2261353,22.3563843,12.427124,33.7566528,17.2405701
		c11.3581238,4.3144836,20.4612732-3.9890442,32.2805176-12.7374268l3.8487549-2.8487549l3.8486938-2.8487244
		c11.8190308-8.7481995,22.4197388-15.0290527,21.6111145-27.1520691
		c-1.2735291-12.309021-6.4706116-26.7924805-6.6282349-37.3204346
		c-0.1239319-8.2862854,2.7195435-15.5203857,12.4130859-16.4693298c5.0891113-0.4982605,9.539978,0.2601624,13.2967224,2.385437
		l26.1327209,9.7928772c2.1785583,0.9082031,4.774231,0.6130981,6.7245789-0.9903259
		c2.8102722-2.3105774,3.2151489-6.4621887,0.9046326-9.272583l-40.1487427-48.5515442
		c-7.8591309-8.9071045-10.3830566-10.9700012-18.9798279-14.1787262l-38.9089966-16.2569885
		c-19.3639221-8.0908508-18.7939758-11.3683014-27.5787354-21.0552368
		c-22.5609131-24.9407196-52.6968536-53.9950104-74.2213745-65.4103241
		c-38.9638824-20.6807632-73.3596649-27.2382965-74.8054962-27.5071259c-1.7805481-0.3349686-3.605545,0.0914917-5.0563049,1.165062
		c-0.2543488,0.1882553-0.4926453,0.3935242-0.7144318,0.6137772
		C141.8874359,121.1371765,141.6212463,121.3053207,141.3670654,121.493454L141.3670654,121.493454z M336.6123352,383.695282
		l-17.5263062,12.9720764c-1.8455505,1.3631897-4.1038818,1.7410889-5.8900146,0.9888
		c-2.8805847-1.2164917-5.7776489-2.5259399-8.6835632-3.9241943c-15.9852905-8.0758362-7.449646-13.3151855-3.2766724-16.1985474
		l19.9084778-14.7358704l19.9083862-14.7357483c3.976532-3.1487122,11.4806519-9.7816772,14.5350952,7.8653259
		c0.4884338,3.1875916,0.8945312,6.3407898,1.2163696,9.4512024c0.1977539,1.9279785-0.8232727,3.977417-2.6661072,5.3442688
		L336.6123352,383.695282L336.6123352,383.695282z M313.4120789,352.3511963l-20.1738281,14.9324036
		c-17.683197,13.0891113-24.6296997,4.493866-31.700531-0.4031677
		c-10.7962952-8.4023743-20.8703156-17.660675-30.1050415-27.6798096
		c-5.7296753-6.2200317-11.1318054-12.7460327-16.0563049-19.4000549
		c-13.9057465-18.7860718-42.3886871-65.6090088-54.267868-98.110672c-3.1507263-7.965271-4.3594666-14.555954,11.2190399-26.086853
		l16.1918488-11.9848633l16.1916962-11.9847565c15.5786743-11.5310211,21.5288544-8.4498291,28.2263947-3.109848
		c27.6139679,20.8551025,64.0749054,61.7729034,77.9798737,80.5595551
		c4.9252625,6.6534424,9.5887146,13.7261963,13.8640137,21.0227051
		c6.8847046,11.7585754,12.7966003,24.0975952,17.678894,36.8774109c2.6178894,8.1929932,8.8091431,17.34729-8.874176,30.43573
		L313.4120789,352.3511963L313.4120789,352.3511963z M180.7859955,173.170166l-13.2715302,9.8233032
		c-15.3632812,11.3715973-14.8424377-1.751709-15.3711853-6.8778992c-0.8896637-9.425415-1.237381-17.9667511-1.3055725-25.1690521
		c0.1375122-2.4574127,0.8759003-8.4642181,5.1760712-11.2442169c3.9146881-3.3004761,9.8753052-2.252121,12.2656097-1.6657562
		c6.8683624,2.1689453,14.9355774,4.9964905,23.6900482,8.6005402c4.7481079,2.0030823,17.4511566,5.3383484,2.0878754,16.7099304
		L180.7859955,173.170166L180.7859955,173.170166z M337.1514282,265.5805664
		c3.2797546,5.9594727,7.0592651,13.2305298,10.7954407,21.2989807
		c6.8122559,14.7113037,14.4402771,12.9191284,16.5792847,12.1782532l10.9708557-3.8297119l0.0009155,0.0025024
		c1.4059448-0.496582,2.9873657-0.5212402,4.4933472,0.0414429l6.5653076,2.4602966
		c3.7884216,0.7663879,6.2012024-0.5991211,0.8343506-7.4366455l-15.5717468-18.8307495
		c-4.4259033-4.9986877-10.4258118-8.817688-16.8649292-11.3021545l-9.0409546-3.7775879
		C342.1275024,254.2396088,327.7018738,248.4121857,337.1514282,265.5805664L337.1514282,265.5805664z M223.4913483,349.7094116
		c4.7414398,4.8775635,10.5915833,10.6159668,17.2168121,16.54599c12.079834,10.8123779,8.1373749,17.5844116,6.8042755,19.4135132
		l-6.8673859,9.3738098l0.0022125,0.0015259c-0.8855896,1.1995544-1.3712616,2.7049255-1.2730865,4.3096313l0.4353485,6.9975586
		c-0.3735657,3.8470154-2.3843536,5.7557373-7.3560028-1.3742676l-13.4608459-20.393219
		c-3.4880371-5.6929016-5.3878479-12.5466919-5.8831329-19.4306641l-0.9718933-9.7501221
		C211.1915283,351.1557007,209.832016,335.6570129,223.4913483,349.7094116L223.4913483,349.7094116z"/>
	<path class="st2" d="M211.3761902,214.4982605c9.8950195-7.3240967,21.8232117-9.9441376,33.1082764-8.2594147
		c11.2848816,1.6849365,21.9276123,7.6751709,29.251709,17.5702057c7.3241272,9.8950653,9.9442444,21.8232574,8.2593994,33.1082153
		c-1.6850891,11.2850647-7.6751404,21.9276733-17.5701599,29.25177c-9.8951111,7.3241577-21.8234558,9.9443665-33.1082764,8.2593689
		c-11.2849426-1.6849976-21.9276276-7.6750488-29.2517548-17.5701294c-7.3240967-9.89505-9.9442596-21.8233948-8.2593689-33.1082916
		C195.4908752,232.4651947,201.4810791,221.8224182,211.3761902,214.4982605L211.3761902,214.4982605z M242.5338135,219.3029327
		c-7.940506-1.1855469-16.3345642,0.6583862-23.2986145,5.8130341c-6.9642029,5.1547699-11.1795349,12.644043-12.3652496,20.58461
		c-1.1854706,7.9405365,0.6585083,16.3345184,5.8132019,23.2986603
		c5.1546326,6.9640198,12.6439667,11.1795654,20.5844116,12.3651428c7.9406891,1.1855774,16.3345642-0.6583862,23.2987823-5.8131714
		c6.9640198-5.1546326,11.1795654-12.6438904,12.3650818-20.5844727c1.1856995-7.9405823-0.6585083-16.3345337-5.8131409-23.2985535
		C257.9635925,224.7040558,250.474472,220.4884796,242.5338135,219.3029327L242.5338135,219.3029327z"/>
	<path class="st1" d="M274.5665283,299.866272c-2.8884583,2.13797-3.4959717,6.2068176-1.3579712,9.0953064
		c2.1324158,2.8809814,6.2012329,3.4884033,9.0888367,1.3570251c2.8821106-2.1390076,3.489563-6.2077332,1.3579407-9.0952759
		C281.5163574,298.341156,277.4476013,297.7335815,274.5665283,299.866272L274.5665283,299.866272z"/>
	<path class="st1" d="M252.6671143,316.0757751c-2.8884583,2.13797-3.4959259,6.2067566-1.3579254,9.0952454
		c2.132431,2.8809814,6.2011871,3.4884644,9.0888519,1.3570251c2.8819885-2.138916,3.489563-6.2077332,1.3579407-9.0952454
		C259.6169739,314.5505981,255.5481262,313.9431152,252.6671143,316.0757751L252.6671143,316.0757751z"/>
	<path class="st1" d="M296.4660645,283.6567078c-2.8885193,2.1380005-3.4959412,6.2067566-1.3579407,9.0952454
		c2.1324463,2.8809814,6.2011414,3.4884949,9.0888062,1.3570862c2.8821106-2.1390381,3.489563-6.2077332,1.3580322-9.0953674
		C303.415863,282.1315918,299.3471069,281.5240173,296.4660645,283.6567078L296.4660645,283.6567078z"/>
	<path class="st2" d="M391.0767517,478.2988281c-9.4265747-2.5538025-22.4807434-7.0305481-32.7380676-14.1258545
		c-11.4719543-7.9354553-19.5666504-18.9714355-16.8173218-34.0762329c0.1546326-0.8500366,0.3753662-1.8075562,0.6650085-2.8762817
		c1.0772095-3.9755554,2.711731-7.5057068,4.789856-10.6379089c4.7384949-7.1427307,9.846405-10.9235229,18.0617065-13.3688965
		c3.6023865-1.0724182,7.4560852-1.6045227,11.5731201-1.4736328c1.1067505,0.0351562,2.086792,0.1038818,2.9450989,0.2041321
		c15.2495422,1.7826538,23.4389648,12.7478943,27.6775818,26.0376892
		c3.7895203,11.8820801,4.2580872,25.6750183,3.9469299,35.4364929
		C410.6291199,483.119873,405.9450684,482.3791504,391.0767517,478.2988281L391.0767517,478.2988281z M398.0515747,454.633728
		c-0.2127991-7.2437439-1.0787964-15.4327087-3.3724365-22.6235657
		c-2.7937012-8.7597656-7.8110046-15.9432373-16.6714478-16.9790039c-0.6812744-0.0796204-1.2870789-0.1288452-1.8103027-0.1453857
		c-2.610199-0.0831299-5.0760193,0.2609253-7.4002075,0.9529114c-4.9510193,1.4743958-7.9884338,3.7226257-10.844635,8.026947
		c-1.3407898,2.020813-2.3900757,4.2785339-3.0730591,6.7992249c-0.1368713,0.505127-0.2667542,1.098877-0.3895874,1.7737122
		c-1.5976868,8.7762451,3.8069458,15.6734009,11.3684998,20.9041138c6.3252563,4.3754272,14.074707,7.6358948,21.0421753,9.9647217
		C393.4342041,465.2243652,398.3393555,465.2114258,398.0515747,454.633728L398.0515747,454.633728z"/>
	<path class="st1" d="M108.0774078,80.1585312c-3.2270813,2.3881073-7.7815704,1.7080917-10.1701736-1.518959L77.0692291,50.4869156
		c-2.3886032-3.2270546-1.7086258-7.781601,1.5183716-10.1701584c3.2272186-2.3887177,7.7816925-1.7086067,10.1702957,1.5184479
		l20.8380127,28.1526566c2.3885956,3.2270508,1.7086334,7.7815018-1.5185852,10.1702194L108.0774078,80.1585312
		L108.0774078,80.1585312z"/>
	<path class="st1" d="M331.3644714,206.3170624c-3.227478,2.3820801-7.7752991,1.6989746-10.1617126-1.5251312
		c-0.9046631-1.2221832-1.4035645-2.6985626-1.4259338-4.2182922c-0.4023743-24.444397-8.4473267-48.1632385-22.9947815-67.8172302
		c-38.523407-52.0460434-111.972229-63.0121231-164.0178986-24.4889984
		c-52.0460434,38.523407-63.0128098,111.9721527-24.4894104,164.0182037
		c14.5474777,19.6539917,34.8819885,34.2763367,58.1390533,41.8021851c1.6465607,0.4040833,3.0968781,1.3713989,4.1035309,2.7314148
		c2.3886108,3.2270508,1.7085266,7.7816772-1.5185394,10.1702881c-2.0205383,1.495575-4.673172,1.8422241-7.0092468,0.9140625
		c-26.1478577-8.4627686-49.0266418-24.9021606-65.3781433-46.9934387
		c-43.3008041-58.500412-30.9741135-141.057724,27.5264206-184.3586121
		c58.500145-43.300602,141.0574646-30.974472,184.3582764,27.5259552
		c16.3515015,22.0912781,25.3909912,48.7742157,25.8451843,76.2460938c0.0389099,2.3514862-1.0579224,4.5728302-2.9430847,5.9682007
		c-0.0109558,0.0081177-0.0235596,0.0174408-0.0342712,0.0253601L331.3644714,206.3170624L331.3644714,206.3170624z"/>
	<path class="st1" d="M57.1814575,146.7430878c-0.0013618,0.0006714-0.004364,0.0028992-0.005619,0.00383
		c-2.087616,1.5452118-4.8434677,1.8597717-7.2247467,0.8238678l-32.1171455-13.9603271
		c-1.1511383-0.5095978-2.1517973-1.3105774-2.9011974-2.3230286c-2.3886385-3.2271118-1.7085266-7.7815933,1.5186634-10.1702881
		c2.0735626-1.5348129,4.8078117-1.8558502,7.1796017-0.8435059l32.1054916,13.9691315
		c1.1692772,0.5077362,2.1870308,1.3170929,2.9460869,2.3425903c2.3871422,3.2250977,1.7101479,7.7759094-1.5127563,10.1660004
		L57.1814575,146.7430878L57.1814575,146.7430878z"/>
	<path class="st1" d="M46.3920135,229.8690796c-0.006958,0.0051575-0.0155792,0.0115356-0.0233002,0.0172424
		c-1.0173988,0.753067-2.2162094,1.225769-3.4737358,1.3682556l-34.7943764,3.9700775
		c-2.5821085,0.2958527-5.1266298-0.8105316-6.6730509-2.8997803c-2.3897696-3.2286377-1.709456-7.7849579,1.5192344-10.1747589
		c1.0257454-0.7592468,2.233964-1.2359467,3.5016227-1.3806152l34.8001328-3.97435
		c2.5800705-0.2932281,5.1225548,0.8111877,6.6677208,2.8987579c2.3885994,3.2270508,1.7086105,7.7816925-1.5184441,10.1702881
		L46.3920135,229.8690796L46.3920135,229.8690796z"/>
	<path class="st1" d="M78.6221161,307.2424927L50.4691925,328.080719c-3.2270432,2.388031-7.7816505,1.7079773-10.1702499-1.5190735
		c-2.3885956-3.2270508-1.7085457-7.7816162,1.5185089-10.1702271l28.1529388-20.837616
		c3.22715-2.3892822,7.7817154-1.709259,10.170311,1.5177917c2.3886032,3.2270508,1.7085876,7.7816467-1.5184937,10.1702881
		L78.6221161,307.2424927L78.6221161,307.2424927z"/>
	<path class="st1" d="M363.3260193,88.7668686l-28.1820984,20.8598251
		c-3.2272034,2.3883133-7.7817383,1.7082443-10.1704102-1.5189514c-2.3886414-3.2270737-1.7086182-7.7815704,1.5183716-10.1701279
		l28.1590576-20.8421555c3.2268372-2.3890152,7.781311-1.7089996,10.1699524,1.5180817
		c2.3886719,3.2271881,1.7087097,7.7817307-1.5184021,10.170372L363.3260193,88.7668686L363.3260193,88.7668686z"/>
	<path class="st1" d="M268.5784607,58.7078514c-3.2269897,2.3879738-7.7815857,1.707943-10.1701965-1.5191078
		c-1.5452271-2.0876694-1.8586426-4.8419418-0.8240662-7.2236633l13.9618225-32.1272125
		c0.5082703-1.1701717,1.3171082-2.1864491,2.3428955-2.9457045c3.2286682-2.3898096,7.7848511-1.7095928,10.1746521,1.5190973
		c1.5464478,2.0893078,1.8614197,4.8462887,0.8241272,7.2289581l-13.9660645,32.1215363
		c-0.5046997,1.1661873-1.3096619,2.1805191-2.3309631,2.9364662c-0.003479,0.0025826-0.008667,0.0064201-0.0120544,0.0089226
		L268.5784607,58.7078514L268.5784607,58.7078514z"/>
	<path class="st1" d="M185.4667664,47.9621391c-3.2266693,2.3883171-7.781311,1.7083244-10.1699066-1.5187263
		c-0.7589264-1.0253372-1.2357483-2.2350769-1.380249-3.5019341l-3.9643555-34.7986145
		c-0.3136139-2.5941291,0.7917633-5.1605449,2.8931274-6.7159328c3.2271729-2.3886788,7.7817688-1.7087429,10.1704102,1.518365
		c0.7689056,1.0388145,1.2470703,2.2652104,1.3853302,3.5501134l3.9759827,34.7900162
		c0.2947998,2.5793304-0.811264,5.123024-2.89888,6.6682358C185.4747314,47.9562416,185.4702606,47.9595566,185.4667664,47.9621391
		L185.4667664,47.9621391z"/>
	<path class="st2" d="M624.9368896,367.4401855c-14.7249146-7.4576416-31.0801392-8.2406006-45.6179199-3.4779358
		c-7.0546265,2.3113708-13.6815186,5.9288025-19.4865112,10.7227478c-3.2775879,3.5012512-8.8322754,6.0257263-15.59021,2.9732361
		c-14.7250366-7.4573669-31.0801392-8.2404785-45.6179199-3.4778137
		c-9.7501221,3.0712891-14.5953674,0.9943542-17.6698608-2.3871765
		c-13.3761902-13.7275696-31.0692444-20.7336731-48.8608398-20.9642639
		c-15.9995422-0.2072144-32.0664368,5.0678406-45.134613,15.8633423
		c-13.093811,10.8181763-4.4515381,20.2489014,9.4727478,9.2936096c10.3900146-8.1741333,22.963501-12.165863,35.4785156-12.0037842
		c14.4066162,0.1868896,28.7546692,5.8812866,39.6273193,17.0393982c2.7032471,2.9208069,5.3919067,4.7730713-0.6318054,12.1713867
		c-2.1915588,2.6918945-4.1761475,5.6091309-5.9142456,8.7414551c-5.3905029,9.7148132,6.7664185,14.7009583,11.9165649,5.7634277
		c5.9213867-10.2756348,15.2589722-17.5023193,25.8285522-20.9651489
		c11.3243713-3.710083,24.1389465-3.0622864,35.6107483,2.7477417c2.3009644,1.1653748,5.7088623,3.8086243,3.0075684,11.9952087
		c-2.0548096,6.0405579-3.1166992,12.3460388-3.1821899,18.6715088c-0.0612183,5.929657,0.7595825,11.8701782,2.4650269,17.6181946
		c4.0504761,13.6479187,16.0507812,8.3797607,12.4590454-4.3485107c-1.2113037-4.2912598-1.793335-8.7148438-1.7473755-13.1325378
		c0.072998-7.0343628,1.7542114-14.0732727,5.0378418-20.5567627c5.8099976-11.4718018,15.7196045-19.5028076,27.0440063-23.2128906
		c11.3244629-3.710083,24.0652466-3.0996704,35.5370483,2.7102966
		C635.4086304,387.551239,641.5397949,375.848938,624.9368896,367.4401855L624.9368896,367.4401855z"/>
	<path class="st2" d="M236.8456573,654.6972656c-2.831192-16.2611084,1.197403-32.1317749,9.9988251-44.6442871
		c4.2712402-6.0717773,9.6667175-11.3530884,15.9472656-15.5045776c4.3058777-2.1119385,8.3428955-6.6870117,7.3976135-14.0418701
		c-2.8311462-16.2609863,1.1974487-32.1317139,9.9988708-44.6442261c5.7852173-8.4276733,5.2141418-13.6682739,2.8781433-17.5963745
		c-9.2215576-16.8027649-10.7540283-35.7705994-5.7775269-52.8536987
		c4.4754944-15.3623657,14.213623-29.1876526,28.3554688-38.5324707c14.17099-9.3626709,20.6661682,1.6573181,6.1211853,11.7743835
		c-10.8526611,7.5492554-18.3429565,18.4083252-21.8433838,30.4247131
		c-4.0297852,13.8330994-2.7746277,29.2185974,4.7209473,42.8763733c2.0036621,3.4386292,2.9898682,6.5509949,11.8250427,2.9510803
		c3.2146301-1.3096924,6.5844116-2.3556519,10.087677-3.1028137c10.8657837-2.3177795,12.0835266,10.7652893,2.0314026,13.0802307
		c-11.557312,2.6616821-21.196228,9.4810181-27.5953369,18.578064c-6.8562012,9.7468262-9.9798279,22.1917114-7.7741699,34.8603516
		c0.4424133,2.5410156,1.9749146,6.5723877,10.5934143,6.3803101c6.3774109-0.2008057,12.7180481,0.6255493,18.7868042,2.4105225
		c5.6889954,1.6734619,11.1305237,4.1938477,16.1297607,7.5038452c11.8695679,7.8604126,3.3259277,17.7984619-7.7980042,10.6453247
		c-3.7503662-2.4118652-7.8111572-4.2605591-12.0494995-5.5070801c-6.7488708-1.9849854-13.9719238-2.4331665-21.1316528-1.1866455
		c-12.6687622,2.2057495-23.2441406,9.3373413-30.1003113,19.0841675
		c-6.8561401,9.7467651-9.9940033,22.1102295-7.7883453,34.7788696
		C253.0208282,670.586792,240.0379181,673.0323486,236.8456573,654.6972656L236.8456573,654.6972656z"/>
	<path class="st1" d="M272.9811401,135.6583252c4.1412659,2.0309601,5.8519897,7.0342407,3.8210449,11.1755219
		c-2.0308838,4.1413422-7.0341187,5.8520355-11.1754761,3.8211517c-4.1412659-2.0309601-5.8519897-7.0342407-3.8211365-11.1755981
		C263.8365479,135.3381348,268.8398132,133.6274109,272.9811401,135.6583252L272.9811401,135.6583252z"/>
	<path class="st1" d="M224.964325,117.7215424c4.6399689,2.2751999,6.5565948,7.8808517,4.2812958,12.5207977
		c-2.2754822,4.6398315-7.8810883,6.5565186-12.5207977,4.2812042c-4.6400299-2.2754059-6.5567169-7.881012-4.2812347-12.5208435
		C214.7189178,117.3628006,220.3244934,115.4460678,224.964325,117.7215424L224.964325,117.7215424z"/>
	<path class="st1" d="M250.199173,106.9462814c2.9574432,1.4502792,4.1790924,5.0232239,2.7287903,7.9808578
		c-1.4503021,2.957283-5.0233612,4.1790237-7.9806366,2.7287216c-2.957428-1.4503708-4.1792297-5.0232925-2.7288818-7.9806213
		C243.6687164,106.7177963,247.2416077,105.4959412,250.199173,106.9462814L250.199173,106.9462814z"/>
	<path class="st1" d="M189.2000122,100.92379c2.237793,1.0974197,3.162323,3.8009644,2.0650024,6.0387726
		c-1.0974731,2.2378311-3.8011017,3.1622467-6.0389404,2.0647736c-2.2377472-1.0973663-3.1620789-3.8008881-2.0647583-6.0386887
		C184.2587891,100.7508163,186.9621887,99.8263168,189.2000122,100.92379L189.2000122,100.92379z"/>
	<path class="st1" d="M117.9794388,250.3873749c0.7326889,4.5539093,5.0180817,7.651474,9.571991,6.9187775
		c4.5539627-0.732605,7.6515427-5.0179749,6.9188309-9.5718689c-0.7324982-4.5540619-5.017807-7.6516876-9.5718307-6.9190521
		C120.3445358,241.5479431,117.2469482,245.833313,117.9794388,250.3873749L117.9794388,250.3873749z"/>
	<path class="st1" d="M114.8507385,199.2253265c0.8208542,5.1020355,5.6220627,8.5725861,10.7242203,7.7518921
		c5.1020889-0.8208923,8.5726395-5.6221924,7.7519455-10.7242584c-0.8209229-5.1022339-5.6222382-8.5726929-10.7243271-7.7518005
		C117.5004578,189.3218994,114.0299759,194.1230621,114.8507385,199.2253265L114.8507385,199.2253265z"/>
	<path class="st1" d="M97.1744308,220.2120361c0.5232086,3.2520447,3.583374,5.4641571,6.8355408,4.9411163
		c3.2519455-0.5232239,5.4640961-3.5835724,4.9409866-6.8356018c-0.5231934-3.2521362-3.5835037-5.4642334-6.8355637-4.9409332
		C98.8633652,213.8997192,96.6510925,216.9599152,97.1744308,220.2120361L97.1744308,220.2120361z"/>
	<path class="st1" d="M109.2324142,160.114151c0.3958969,2.4607544,2.711586,4.1345978,5.1724319,3.7387085
		c2.4607544-0.3958893,4.1344223-2.7114563,3.7385406-5.1723022c-0.3958511-2.4607086-2.7113495-4.1345062-5.1722031-3.7386322
		C110.5104904,155.3377838,108.8364792,157.6533508,109.2324142,160.114151L109.2324142,160.114151z"/>
</g>
</svg>
