<?xml version="1.0" encoding="utf-8"?>
<!-- Generator: Adobe Illustrator 28.0.0, SVG Export Plug-In . SVG Version: 6.00 Build 0)  -->
<svg version="1.1" id="Layer_1" xmlns="http://www.w3.org/2000/svg" xmlns:xlink="http://www.w3.org/1999/xlink" x="0px" y="0px"
	 viewBox="0 0 800 800" style="enable-background:new 0 0 800 800;" xml:space="preserve">
<style type="text/css">
	.st0{fill-rule:evenodd;clip-rule:evenodd;fill:#CAAF56;}
	.st1{fill:#CAAF56;}
</style>
<g>
	<path class="st0" d="M399.060791,200.5314789c-1.8049316,0.0001984-3.5253296,0.7431946-4.7573853,2.0717316
		c-1.0020447,1.0762634-24.7472839,26.810318-43.7616577,66.6139832
		c-10.5093079,21.9810181-17.4463196,63.263031-20.7420349,96.7320251
		c-1.2980042,13.0124817,1.1101379,15.3077087-9.6406555,33.3312073l-21.6020203,36.2153015
		c-5.0007935,7.6936035-5.8021851,10.853302-6.8199463,22.6882629l-3.3853455,62.9103088
		c-0.1852417,3.6335449,2.6101685,6.7296753,6.2437134,6.914917c2.5213013,0.128418,4.7834167-1.1786499,5.9941406-3.2047119
		l15.1785278-23.4185486c1.7552185-3.9432678,4.8815002-7.2008362,9.2685547-9.8280334
		c8.355896-5.0043335,14.9450378-0.8814392,19.7754822,5.8526001c6.1365051,8.5558472,10.5761108,23.2891846,16.8756409,33.9405518
		c6.5625305,10.2252197,18.819458,8.9668579,33.5241699,8.9668579h4.7883606h4.788269
		c14.7044373,0,26.961731,1.2583618,33.5241699-8.9668579c6.299469-10.6513672,10.7389221-25.3847046,16.8757019-33.9405518
		c4.8302002-6.7340393,11.4195251-10.8569336,19.7755127-5.8526001c4.3869019,2.6271973,7.5131836,5.8847656,9.2683411,9.8280334
		l15.1786499,23.4185486c1.2107544,2.026062,3.4726562,3.3331299,5.9942017,3.2047119
		c3.6334839-0.1852417,6.4288635-3.2813721,6.2437134-6.914917l-3.3854065-62.9103088
		c-1.0177917-11.8349609-1.8191833-14.9946594-6.8200073-22.6882629l-21.6021423-36.2153015
		c-10.7506714-18.0234985-8.3426819-20.3187256-9.6405334-33.3312073
		c-3.2957153-33.4689941-10.2327271-74.7510071-20.742157-96.7320251
		c-19.0143738-39.8036652-42.7594604-65.5377197-43.7616577-66.6139832
		c-1.2318726-1.328537-2.9524841-2.0715332-4.7572632-2.0717316c-0.3164368,0-0.6300964,0.0232086-0.9393921,0.0682983
		C399.6910095,200.5546875,399.3770447,200.5314789,399.060791,200.5314789L399.060791,200.5314789z M400.0003357,527.4406738
		l-21.804718-0.0004272c-2.2944336-0.0022583-4.3344421-1.0421143-5.3225098-2.7094116
		c-1.5916138-2.6915283-3.1411438-5.4675903-4.644989-8.3203125c-8.0439453-16.0013733,1.9338684-15.1344604,7.003418-14.9693909
		h24.7687988h24.7686462c5.0694885-0.1650696,15.0473022-1.0319824,7.00354,14.9693909
		c-1.5038147,2.8527222-3.0533447,5.6287842-4.6451721,8.3203125c-0.9880676,1.6672974-3.0280151,2.7071533-5.3224487,2.7094116
		L400.0003357,527.4406738L400.0003357,527.4406738z M400.0003357,488.4444885l-25.0990295,0.0001221
		c-22.0004578,0.0003052-22.4702454-11.0410461-25.2401428-19.1838684
		c-3.678894-13.1766968-6.2680359-26.6116638-7.7299194-40.158844c-0.9048157-8.4082947-1.3643799-16.8676453-1.3638306-25.1456909
		c-0.0005493-23.3728027,4.9622803-77.9533386,14.7505493-111.1446533
		c2.2063599-8.2767334,5.1558228-14.2932739,24.5375671-14.2932739h20.1448059h20.1445923
		c19.3819275,0,22.3314209,6.0165405,24.5377808,14.2932739c9.7879028,33.1913147,14.7507324,87.7718506,14.7503357,111.1446533
		c0.0003967,8.2780457-0.4590759,16.7373962-1.3636475,25.1456909c-1.4618835,13.5471802-4.0509949,26.9821472-7.7298889,40.158844
		c-2.7701111,8.1428223-3.2399902,19.1841736-25.2401733,19.1838684L400.0003357,488.4444885L400.0003357,488.4444885z
		 M400.0003357,265.5195618H383.4888c-19.1139832,0-10.8878174-10.2382965-8.263031-14.6731415
		c4.8924255-8.1051941,9.6944885-15.1773682,13.9245911-21.0069427c1.5725098-1.8933868,5.7396851-6.2822113,10.8499756-5.958374
		c5.1100769-0.3238373,9.2773743,4.0649872,10.849762,5.958374c4.2302551,5.8295746,9.0322266,12.9017487,13.9246826,21.0069427
		c2.6246948,4.434845,10.850769,14.6731415-8.2631836,14.6731415H400.0003357L400.0003357,265.5195618z M470.7043457,432.8240051
		c-0.9093018,6.7413025-2.1972656,14.834137-3.9944458,23.5421143c-3.2767639,15.8774109,3.9206543,18.9750977,6.080719,19.6521606
		l11.0964966,3.448761l-0.0007629,0.002533c1.4255066,0.4373169,2.7112732,1.3583374,3.5869751,2.7065735l3.813324,5.8834534
		c2.5890503,2.8699036,5.3407593,3.2077637,5.0949402-5.480957l-1.3130493-24.3998413
		c-0.5835266-6.6509705-3.1340332-13.2901306-6.8315125-19.1179504l-5.0194702-8.4151001
		C481.4511414,426.6688843,473.3231506,413.4026184,470.7043457,432.8240051L470.7043457,432.8240051z M329.2961731,432.8240051
		c0.9091797,6.7413025,2.1973877,14.834137,3.9945679,23.5421143c3.2767944,15.8774109-3.92099,18.9750977-6.0806885,19.6521606
		l-11.0966492,3.448761l0.000885,0.002533c-1.4254761,0.4373169-2.7114563,1.3583374-3.5872192,2.7065735l-3.8132019,5.8834534
		c-2.5889893,2.8699036-5.3407593,3.2077637-5.0949402-5.480957l1.3132019-24.3998413
		c0.583313-6.6509705,3.1338806-13.2901306,6.8312988-19.1179504l5.0195312-8.4151001
		C318.5494385,426.6688843,326.6774597,413.4026184,329.2961731,432.8240051L329.2961731,432.8240051z"/>
	<path class="st1" d="M400.0003357,316.9371643c12.3106995,0,23.4570312,4.9906006,31.5253601,13.0586243
		c8.0680542,8.0680847,13.0585632,19.2146301,13.0585632,31.5253601c0,12.3107605-4.990509,23.4571228-13.0585632,31.5253296
		c-8.0683289,8.0680847-19.2146606,13.0586548-31.5253601,13.0586548c-12.3108521,0-23.4573669-4.9905701-31.5253601-13.0586548
		c-8.0680542-8.0682068-13.0586548-19.2145691-13.0586548-31.5253296c0-12.31073,4.9906006-23.4572754,13.0586548-31.5253601
		C376.5429688,321.9277649,387.6894836,316.9371643,400.0003357,316.9371643L400.0003357,316.9371643z M422.1855164,339.3358459
		c-5.6770325-5.677002-13.5209961-9.1888428-22.1851807-9.1888428c-8.6643982,0-16.5082092,3.5118408-22.1853943,9.1888428
		c-5.6769714,5.6770935-9.1887207,13.5209961-9.1887207,22.1853027c0,8.6641541,3.5117493,16.5081787,9.1887207,22.1851807
		c5.6771851,5.677124,13.5209961,9.1888123,22.1853943,9.1888123c8.6641846,0,16.5081482-3.5116882,22.1851807-9.1888123
		c5.6771545-5.677002,9.1886902-13.5210266,9.1886902-22.1851807
		C431.3742065,352.856842,427.8626709,345.0129395,422.1855164,339.3358459L422.1855164,339.3358459z"/>
	<path class="st0" d="M400.0025024,423.1478882c-3.5936279,0-6.502655,2.9089966-6.502655,6.502655
		c0,3.5843201,2.9090271,6.4932251,6.4980469,6.4980164c3.5891418-0.0046082,6.4980164-2.9135132,6.5025635-6.5026245
		C406.4959106,426.0567627,403.5870361,423.1477661,400.0025024,423.1478882L400.0025024,423.1478882z"/>
	<path class="st0" d="M372.7567444,423.1478882c-3.5936279,0-6.502594,2.9089966-6.502594,6.502655
		c0,3.5843201,2.9089661,6.4932251,6.4980469,6.4980164c3.5889893-0.0046082,6.4980164-2.9135132,6.5025635-6.5026245
		C379.2502136,426.0567627,376.3411865,423.1477661,372.7567444,423.1478882L372.7567444,423.1478882z"/>
	<path class="st0" d="M427.2484131,423.1478882c-3.593689,0-6.502594,2.9089966-6.502594,6.502655
		c0,3.5843201,2.908905,6.4932251,6.4979858,6.4980164c3.5891418-0.0046082,6.4980164-2.9135132,6.5026855-6.5026245
		C433.7418213,426.0567627,430.8329468,423.1477661,427.2484131,423.1478882L427.2484131,423.1478882z"/>
	<path class="st1" d="M387.4942932,635.8833008c-6.0574646-7.6608887-13.8866882-19.0255737-17.9100037-30.8310547
		c-4.4997559-13.2033691-4.4403381-26.8895874,6.7558899-37.3947754c0.6300049-0.5912476,1.3770752-1.2295532,2.2457275-1.9162598
		c3.2310181-2.5545654,6.6450195-4.4195557,10.178833-5.7007446c8.058136-2.9220581,14.4130554-2.9220581,22.4711304,0
		c3.5335388,1.281189,6.9476013,3.1461792,10.178894,5.7007446c0.8686523,0.6867065,1.615509,1.3250122,2.2457275,1.9162598
		c11.1966248,10.5053101,11.2554321,24.1911011,6.7557373,37.3947754
		c-4.0231628,11.8049927-11.8524475,23.170166-17.9100037,30.8310547
		C400.3417358,651.3907471,397.0175171,648.008667,387.4942932,635.8833008L387.4942932,635.8833008z M407.1796875,621.0115356
		c4.1385193-5.9489746,8.3143616-13.0462036,10.7489014-20.1906128c2.9660034-8.7029419,3.2069397-17.461792-3.298645-23.5657349
		c-0.5002136-0.4692993-0.9578552-0.8692627-1.3685913-1.1938477c-2.0484924-1.619751-4.2351685-2.8101807-6.5149841-3.6367188
		c-4.8566589-1.760498-8.6356201-1.760498-13.4921265,0c-2.2799683,0.8265381-4.4665527,2.0169678-6.5151367,3.6367188
		c-0.410553,0.324585-0.8681946,0.7245483-1.3684082,1.1938477c-6.5054932,6.1036377-6.26474,14.862793-3.2989197,23.5657349
		c2.4809875,7.2799683,6.7700195,14.5110474,10.9847717,20.5281372
		C397.1676025,626.7769165,401.1179504,629.6848145,407.1796875,621.0115356L407.1796875,621.0115356z"/>
	<path class="st0" d="M396.8951111,147.5023499c-4.0146179-0.0003967-7.270813-3.2566071-7.270813-7.2714996v-35.0256271
		c0-4.0148773,3.2561951-7.2711563,7.2710266-7.2711563c4.0150757,0,7.2712097,3.256279,7.2712097,7.2711563v35.0256271
		c0,4.0148926-3.256134,7.2711029-7.2712097,7.2711029L396.8951111,147.5023499L396.8951111,147.5023499z"/>
	<path class="st0" d="M501.3109436,381.7467041c-4.0113525-0.0054932-7.2603455-3.2601929-7.2603455-7.2714233
		c0-1.5205688,0.4773254-3.0040588,1.3634949-4.2388916c14.2194214-19.8871155,21.8643494-43.737915,21.8643494-68.190094
		c0-64.7521515-52.512085-117.2637482-117.2637939-117.2637482c-64.7521667,0-117.2642822,52.5115967-117.2642822,117.2637482
		c0,24.452179,7.644989,48.3029785,21.8609924,68.1885071c1.0830383,1.3044128,1.6732788,2.9447327,1.6732788,4.6367798
		c0,4.0148926-3.2563477,7.2711792-7.2712402,7.2711792c-2.5138245,0-4.8521729-1.29953-6.1776428-3.4353943
		c-15.9821472-22.358429-24.591095-49.1833801-24.591095-76.6678467c0-72.7822723,59.0241699-131.806015,131.8065796-131.806015
		c72.7819519,0,131.8059998,59.0237427,131.8059998,131.806015c0,27.4844666-8.6088867,54.3094177-24.5878601,76.6607971
		c-1.3677063,1.913208-3.5708618,3.0461121-5.9162598,3.0461121c-0.0136414,0-0.0293274,0-0.0426331,0L501.3109436,381.7467041
		L501.3109436,381.7467041z"/>
	<path class="st0" d="M316.3727722,170.741394c-0.0014954-0.0002747-0.005249-0.0002747-0.0068054-0.0002747
		c-2.5972595,0-4.9994812-1.3867188-6.2972107-3.6360626l-17.5093689-30.3285828
		c-0.6221008-1.0944519-0.9498596-2.3335876-0.9498596-3.5932159c0-4.0149536,3.2562866-7.2710953,7.2713318-7.2710953
		c2.5797729,0,4.9685059,1.3686676,6.272583,3.5934219l17.494812,30.3287201
		c0.6377563,1.1037598,0.9742737,2.3598022,0.9742737,3.6356506c0,4.0124359-3.2515869,7.2675018-7.2640381,7.2711639
		L316.3727722,170.741394L316.3727722,170.741394z"/>
	<path class="st0" d="M258.2458496,231.1367798c-0.008667,0-0.0193787,0-0.0289917,0
		c-1.2657776,0-2.5105743-0.3332672-3.6061249-0.9668884l-30.3287201-17.5093842
		c-2.2514343-1.2984009-3.6384277-3.7015076-3.6384277-6.3008118c0-4.0168457,3.2575378-7.274353,7.2744446-7.274353
		c1.2761688,0,2.5309143,0.3356476,3.6358948,0.9735565l30.3358765,17.5093842
		c2.2482605,1.2992706,3.6347656,3.6996002,3.6347656,6.2967987c0,4.0148773-3.2562866,7.271225-7.2711487,7.271225
		L258.2458496,231.1367798L258.2458496,231.1367798z"/>
	<path class="st0" d="M238.1192932,312.5022888h-35.0259705c-4.0145416-0.0004272-7.270813-3.2567444-7.270813-7.271637
		c0-4.0148621,3.2562714-7.2711182,7.2711487-7.2711182l35.0256348,0.0004883
		c4.0153656-0.0004883,7.271637,3.2557678,7.271637,7.2706299c0,4.0148926-3.2562714,7.2712097-7.2711945,7.2712097
		L238.1192932,312.5022888L238.1192932,312.5022888z"/>
	<path class="st0" d="M596.9356689,306.2781372h-35.0623169c-4.0148315-0.0003052-7.2709961-3.2565918-7.2709961-7.271637
		c0-4.0149231,3.2561646-7.2711182,7.2709961-7.2711182l35.0332642,0.0004578
		c4.0148926-0.0004578,7.2711182,3.2557373,7.2711182,7.2706604c0,4.0150452-3.2562256,7.2713318-7.2711182,7.2713318
		L596.9356689,306.2781372L596.9356689,306.2781372z"/>
	<path class="st0" d="M538.6633301,225.748764c-4.0145264-0.0004883-7.270752-3.2567596-7.270752-7.271637
		c0-2.5973358,1.3867188-4.9975891,3.6351929-6.296463l30.3358154-17.5165863
		c1.1046753-0.6381683,2.359436-0.9738159,3.6356201-0.9738159c4.0169678,0,7.274353,3.25737,7.274353,7.2742767
		c0,2.5993805-1.3870239,5.0027618-3.6383667,6.3007507l-30.3357544,17.5095215
		c-1.0994873,0.6370697-2.3499756,0.973465-3.6206055,0.973465c-0.0043335,0-0.0108032,0-0.0149536,0L538.6633301,225.748764
		L538.6633301,225.748764z"/>
	<path class="st0" d="M478.2533875,167.6654968c-4.0144043,0-7.270752-3.2562866-7.270752-7.2711639
		c0-1.27565,0.3364563-2.5316925,0.9740295-3.63591l17.51651-30.3287277c1.2912598-2.2716751,3.7065735-3.676857,6.3209534-3.676857
		c4.0150146,0,7.2713623,3.2562103,7.2713623,7.2711487c0,1.2924347-0.3452759,2.5626526-0.9985962,3.6776733
		l-17.5020447,30.3287354c-1.2975769,2.2485809-3.6999512,3.6351013-6.2972107,3.6351013
		C478.2633057,167.6654968,478.2577209,167.6654968,478.2533875,167.6654968L478.2533875,167.6654968z"/>
	<path class="st1" d="M641.4185791,685.9099731c-7.3986816-14.7546387-20.0787964-25.1143188-34.5973511-29.9352417
		c-7.0454102-2.3392334-14.5240479-3.3742065-22.0420532-2.9745483c-4.7174683,0.8642578-10.684021-0.4113159-14.2998657-6.885376
		c-7.3989258-14.7545166-20.0788574-25.1141968-34.5974121-29.9351196
		c-9.6640625-3.3320923-12.322876-7.8840942-12.7822876-12.4312134
		c-2.5844116-18.9918213-12.6374207-35.149353-26.8006287-45.9196167
		c-12.7367249-9.6851807-28.7891846-15.0040283-45.7156677-14.1016235
		c-16.9605713,0.9053345-15.6248474,13.6271362,2.0848389,13.1055908
		c13.2142944-0.3887329,25.695343,3.8832397,35.6581421,11.4591675
		c11.4684753,8.7212524,19.6132507,21.8344116,21.7140198,37.2715454c0.4351196,3.9558716,1.4942017,7.0442505-7.7490234,9.4071045
		c-3.3630066,0.8598633-6.6937561,2.0239258-9.9543152,3.5075684c-10.1124268,4.6015015-3.3074646,15.8417969,6.149353,11.7221069
		c10.8727722-4.7364502,22.6774902-4.9898071,33.2332153-1.4849243
		c11.3095093,3.755249,21.2241211,11.8997803,26.9882202,23.3947144c1.1561279,2.305603,2.3227539,6.4576416-4.7189331,11.4307251
		c-5.2454224,3.6327515-9.8502808,8.0692139-13.6661377,13.1144409c-3.5770264,4.7296753-6.4514771,9.9928589-8.5003662,15.6275635
		c-4.8640137,13.3796387,7.9157715,16.2846069,12.6013184,3.9171143c1.5794067-4.1697998,3.7433472-8.0716553,6.4085083-11.5951538
		c4.2436523-5.6105957,9.7826538-10.2680664,16.2792358-13.5257568c11.494873-5.7641602,24.237915-6.3236694,35.5474243-2.5684204
		c11.3095703,3.755249,21.1870728,11.8258057,26.9512939,23.3207397
		C637.8706665,708.3046875,649.7608643,702.5463867,641.4185791,685.9099731L641.4185791,685.9099731z"/>
	<path class="st1" d="M158.5816956,685.9099731c7.3986816-14.7546387,20.0788116-25.1143188,34.5973053-29.9352417
		c7.0454254-2.3392334,14.5242004-3.3742065,22.0422058-2.9745483c4.7174072,0.8642578,10.6841278-0.4113159,14.3000183-6.885376
		c7.3986511-14.7545166,20.0787811-25.1141968,34.5972748-29.9351196
		c9.6639404-3.3320923,12.3227234-7.8840942,12.7821045-12.4312134
		c2.5845337-18.9918213,12.6374207-35.149353,26.8007507-45.9196167
		c12.736908-9.6851807,28.7893066-15.0040283,45.7157288-14.1016235
		c16.9604187,0.9053345,15.6249084,13.6271362-2.0849609,13.1055908
		c-13.214386-0.3887329-25.6953735,3.8832397-35.6578979,11.4591675
		c-11.4688416,8.7212524-19.6133728,21.8344116-21.7141113,37.2715454
		c-0.4353027,3.9558716-1.4942627,7.0442505,7.7489319,9.4071045c3.3630066,0.8598633,6.6938171,2.0239258,9.9541626,3.5075684
		c10.1125793,4.6015015,3.3077393,15.8417969-6.1491089,11.7221069
		c-10.8729858-4.7364502-22.6775513-4.9898071-33.2331543-1.4849243
		c-11.3095398,3.755249-21.2241669,11.8997803-26.988327,23.3947144c-1.1561737,2.305603-2.3227997,6.4576416,4.7187958,11.4307251
		c5.2454834,3.6327515,9.850296,8.0692139,13.6662292,13.1144409c3.5770569,4.7296753,6.451355,9.9928589,8.5003357,15.6275635
		c4.8640137,13.3796387-7.9156189,16.2846069-12.6011047,3.9171143c-1.5795288-4.1697998-3.7436218-8.0716553-6.4086761-11.5951538
		c-4.2436371-5.6105957-9.7826843-10.2680664-16.2790833-13.5257568
		c-11.4951172-5.7641602-24.2381439-6.3236694-35.5476685-2.5684204
		c-11.309494,3.755249-21.187088,11.8258057-26.9512634,23.3207397
		C162.1296234,708.3046875,150.2393646,702.5463867,158.5816956,685.9099731L158.5816956,685.9099731z"/>
	<path class="st0" d="M496.4214478,290.2187805c2.1203308,4.0962219,0.5187378,9.135498-3.5774841,11.2558594
		c-4.0961914,2.1204529-9.1354065,0.5188599-11.2558899-3.5773621c-2.1203308-4.0962219-0.5187378-9.135498,3.5774841-11.2559814
		C489.2617493,284.5209656,494.3010254,286.1225586,496.4214478,290.2187805L496.4214478,290.2187805z"/>
	<path class="st0" d="M468.4980469,247.2347412c2.375885,4.5892334,0.5814209,10.2351685-4.0078735,12.6109924
		c-4.5893555,2.3755798-10.235321,0.5812073-12.6109314-4.0079651c-2.3757935-4.589447-0.5813904-10.2353821,4.0079651-12.6109924
		C460.4765015,240.8510284,466.122467,242.6453705,468.4980469,247.2347412L468.4980469,247.2347412z"/>
	<path class="st0" d="M495.1917419,253.5870056c1.5142822,2.9251709,0.3705444,6.5238342-2.5547485,8.0382385
		c-2.9251404,1.5141602-6.5238953,0.3704224-8.0380554-2.5546875c-1.5142212-2.9252625-0.3706055-6.5239716,2.5545654-8.0381165
		C490.0786743,249.5181427,493.6773987,250.6616821,495.1917419,253.5870056L495.1917419,253.5870056z"/>
	<path class="st0" d="M449.7452698,212.4556885c1.1457825,2.2134094,0.2804565,4.9364777-1.9328918,6.0823364
		c-2.213501,1.1457825-4.936554,0.2803192-6.0823364-1.9331665c-1.1457825-2.2133636-0.2803345-4.9362946,1.9330139-6.0821381
		C445.8765564,209.3769379,448.5994873,210.2422028,449.7452698,212.4556885L449.7452698,212.4556885z"/>
	<path class="st0" d="M303.5787964,290.2187805c-2.1203613,4.0962219-0.5187378,9.135498,3.5774841,11.2558594
		c4.0962219,2.1204529,9.135498,0.5188599,11.2558289-3.5773621c2.1206055-4.0962219,0.5190735-9.135498-3.5772095-11.2559814
		C310.7387085,284.5209656,305.6994324,286.1225586,303.5787964,290.2187805L303.5787964,290.2187805z"/>
	<path class="st0" d="M331.5021973,247.2347412c-2.3756104,4.5892334-0.5812683,10.2351685,4.0079651,12.6109924
		c4.5892944,2.3755798,10.2352905,0.5812073,12.6110229-4.0079651c2.3757019-4.589447,0.5812073-10.2353821-4.0080872-12.6109924
		C339.5238647,240.8510284,333.8779907,242.6453705,331.5021973,247.2347412L331.5021973,247.2347412z"/>
	<path class="st0" d="M304.8087158,253.5870056c-1.5142212,2.9251709-0.370636,6.5238342,2.5545654,8.0382385
		c2.9251099,1.5141602,6.5238953,0.3704224,8.0381775-2.5546875c1.5142822-2.9252625,0.3705444-6.5239716-2.554718-8.0381165
		C309.9216309,249.5181427,306.3228455,250.6616821,304.8087158,253.5870056L304.8087158,253.5870056z"/>
	<path class="st0" d="M350.2549744,212.4556885c-1.1457825,2.2134094-0.280304,4.9364777,1.9331665,6.0823364
		c2.2134399,1.1457825,4.9363098,0.2803192,6.0821533-1.9331665c1.1457825-2.2133636,0.2804565-4.9362946-1.9330444-6.0821381
		C354.1239014,209.3769379,351.4007568,210.2422028,350.2549744,212.4556885L350.2549744,212.4556885z"/>
</g>
</svg>
